<svg xmlns="http://www.w3.org/2000/svg" viewBox="-2.0 -1.6565756838660597 3.8483095071290236 3.300989104014117" width="800" height="600" preserveAspectRatio="xMidYMid meet">
<style>text { font-family: -apple-system, BlinkMacSystemFont, "Segoe UI", Roboto, sans-serif; font-size: 0.1; text-anchor: middle; dominant-baseline: central; }</style>
<line x1="0.5961644603229846" y1="-0.1907859136898491" x2="0.28149811260989843" y2="0.019817882786329885" stroke="black" stroke-width="0.01" marker-end="url(#arrow)" />
<line x1="0.23994602256887548" y1="0.047628381041893805" x2="0.8000368360086334" y2="0.1987967809360875" stroke="black" stroke-width="0.01" marker-end="url(#arrow)" />
<line x1="0.23994602256887548" y1="0.047628381041893805" x2="0.008054487065622368" y2="0.47083383272958856" stroke="black" stroke-width="0.01" marker-end="url(#arrow)" />
<line x1="0.23994602256887548" y1="0.047628381041893805" x2="-0.05450708882626934" y2="-0.4536712693042921" stroke="black" stroke-width="0.01" marker-end="url(#arrow)" />
<line x1="0.39762372744218427" y1="0.6444134201480569" x2="0.8122373224437826" y2="0.2464492204280923" stroke="black" stroke-width="0.01" marker-end="url(#arrow)" />
<line x1="0.39762372744218427" y1="0.6444134201480569" x2="0.03173604536446359" y2="0.5296470968749104" stroke="black" stroke-width="0.01" marker-end="url(#arrow)" />
<line x1="0.39762372744218427" y1="0.6444134201480569" x2="-0.060532584035973884" y2="-0.4506583596520211" stroke="black" stroke-width="0.01" marker-end="url(#arrow)" />
<line x1="0.39762372744218427" y1="0.6444134201480569" x2="0.11191806631366863" y2="0.2697817554624834" stroke="black" stroke-width="0.01" marker-end="url(#arrow)" />
<line x1="0.6778981883616564" y1="-0.5195653614273607" x2="0.2705038078116966" y2="0.00805286132258215" stroke="black" stroke-width="0.01" marker-end="url(#arrow)" />
<line x1="-0.26743063811941176" y1="0.37227937619451057" x2="0.19782981202816102" y2="0.07457693962468656" stroke="black" stroke-width="0.01" marker-end="url(#arrow)" />
<line x1="-0.26743063811941176" y1="0.37227937619451057" x2="0.35134799768321706" y2="0.6254778231076931" stroke="black" stroke-width="0.01" marker-end="url(#arrow)" />
<line x1="-0.26743063811941176" y1="0.37227937619451057" x2="-0.05947987285729765" y2="0.49004384050883404" stroke="black" stroke-width="0.01" marker-end="url(#arrow)" />
<line x1="-0.26743063811941176" y1="0.37227937619451057" x2="-0.5636077745499317" y2="0.025051012896738757" stroke="black" stroke-width="0.01" marker-end="url(#arrow)" />
<line x1="-0.26743063811941176" y1="0.37227937619451057" x2="-0.5734096949167464" y2="0.025675243282359872" stroke="black" stroke-width="0.01" marker-end="url(#arrow)" />
<line x1="-0.26743063811941176" y1="0.37227937619451057" x2="-0.5636095251351941" y2="0.025077853365075363" stroke="black" stroke-width="0.01" marker-end="url(#arrow)" />
<line x1="-0.26743063811941176" y1="0.37227937619451057" x2="0.033335820375063066" y2="-0.05581283587158331" stroke="black" stroke-width="0.01" marker-end="url(#arrow)" />
<line x1="-0.26743063811941176" y1="0.37227937619451057" x2="-0.11075986201882669" y2="-0.22700225963485873" stroke="black" stroke-width="0.01" marker-end="url(#arrow)" />
<line x1="-0.26743063811941176" y1="0.37227937619451057" x2="-0.56361247205412" y2="0.025127341151613768" stroke="black" stroke-width="0.01" marker-end="url(#arrow)" />
<line x1="-0.26743063811941176" y1="0.37227937619451057" x2="-0.09038089473876945" y2="-0.4479098402845342" stroke="black" stroke-width="0.01" marker-end="url(#arrow)" />
<line x1="-0.26743063811941176" y1="0.37227937619451057" x2="-0.951060670932443" y2="0.5153788169882523" stroke="black" stroke-width="0.01" marker-end="url(#arrow)" />
<line x1="-0.26743063811941176" y1="0.37227937619451057" x2="0.46201052506411006" y2="-0.0810444061816949" stroke="black" stroke-width="0.01" marker-end="url(#arrow)" />
<line x1="-0.26743063811941176" y1="0.37227937619451057" x2="0.5542806263878971" y2="-0.1634775916085126" stroke="black" stroke-width="0.01" marker-end="url(#arrow)" />
<line x1="0.8483095071290236" y1="0.2118255653345892" x2="0.2882186936892657" y2="0.06065716544039551" stroke="black" stroke-width="0.01" marker-end="url(#arrow)" />
<line x1="-0.015972097102734895" y1="0.5146827010525094" x2="0.21591943840051822" y2="0.09147724936481458" stroke="black" stroke-width="0.01" marker-end="url(#arrow)" />
<line x1="-0.5960558511420677" y1="-0.012990048148806206" x2="0.19007694873111058" y2="0.04401237847503165" stroke="black" stroke-width="0.01" marker-end="url(#arrow)" />
<line x1="-0.6065000109721039" y1="-0.011808499638492538" x2="-0.053293016929984505" y2="0.48140885331516453" stroke="black" stroke-width="0.01" marker-end="url(#arrow)" />
<line x1="-0.6065000109721039" y1="-0.011808499638492538" x2="-0.11661191984125013" y2="-0.4629146381655379" stroke="black" stroke-width="0.01" marker-end="url(#arrow)" />
<line x1="0.08159764415180419" y1="0.23002408953594392" x2="0.557459252574033" y2="-0.15913300082056495" stroke="black" stroke-width="0.01" marker-end="url(#arrow)" />
<line x1="0.08159764415180419" y1="0.23002408953594392" x2="0.20716734210667356" y2="0.0853849448044618" stroke="black" stroke-width="0.01" marker-end="url(#arrow)" />
<line x1="0.08159764415180419" y1="0.23002408953594392" x2="0.36730330528031985" y2="0.6046557542215174" stroke="black" stroke-width="0.01" marker-end="url(#arrow)" />
<line x1="0.08159764415180419" y1="0.23002408953594392" x2="-0.22112873591286447" y2="0.35340786719137757" stroke="black" stroke-width="0.01" marker-end="url(#arrow)" />
<line x1="0.08159764415180419" y1="0.23002408953594392" x2="0.00024003075531268264" y2="0.46738400222987453" stroke="black" stroke-width="0.01" marker-end="url(#arrow)" />
<line x1="0.08159764415180419" y1="0.23002408953594392" x2="-0.548990684900198" y2="0.0038880479116256642" stroke="black" stroke-width="0.01" marker-end="url(#arrow)" />
<line x1="0.08159764415180419" y1="0.23002408953594392" x2="-0.559328473827474" y2="0.0047699829040322595" stroke="black" stroke-width="0.01" marker-end="url(#arrow)" />
<line x1="0.08159764415180419" y1="0.23002408953594392" x2="-0.548993350466799" y2="0.003914414640274052" stroke="black" stroke-width="0.01" marker-end="url(#arrow)" />
<line x1="0.08159764415180419" y1="0.23002408953594392" x2="0.06506096439630936" y2="-0.046813863703820464" stroke="black" stroke-width="0.01" marker-end="url(#arrow)" />
<line x1="0.08159764415180419" y1="0.23002408953594392" x2="-0.5489979696408753" y2="0.003963021571326187" stroke="black" stroke-width="0.01" marker-end="url(#arrow)" />
<line x1="0.08159764415180419" y1="0.23002408953594392" x2="-0.06898956926387231" y2="-0.4479735404522065" stroke="black" stroke-width="0.01" marker-end="url(#arrow)" />
<line x1="0.08159764415180419" y1="0.23002408953594392" x2="0.4653962884988913" y2="-0.07624919219693381" stroke="black" stroke-width="0.01" marker-end="url(#arrow)" />
<line x1="0.08159764415180419" y1="0.23002408953594392" x2="0.6245301345390646" y2="-0.0813755843967444" stroke="black" stroke-width="0.01" marker-end="url(#arrow)" />
<line x1="0.08159764415180419" y1="0.23002408953594392" x2="0.798323585892858" y2="0.21301202147446296" stroke="black" stroke-width="0.01" marker-end="url(#arrow)" />
<line x1="0.08159764415180419" y1="0.23002408953594392" x2="-0.5695197857458206" y2="-0.027891736112861082" stroke="black" stroke-width="0.01" marker-end="url(#arrow)" />
<line x1="0.08159764415180419" y1="0.23002408953594392" x2="-0.08136178247631204" y2="-0.22826613160813142" stroke="black" stroke-width="0.01" marker-end="url(#arrow)" />
<line x1="-0.5960591646566163" y1="-0.012961874485288521" x2="0.1900768265023513" y2="0.04401406455345932" stroke="black" stroke-width="0.01" marker-end="url(#arrow)" />
<line x1="-0.6160056722527038" y1="-0.046305382022055225" x2="-0.05249579812921167" y2="0.48053567682888865" stroke="black" stroke-width="0.01" marker-end="url(#arrow)" />
<line x1="-0.6160056722527038" y1="-0.046305382022055225" x2="-0.11811269528978677" y2="-0.4646206528196403" stroke="black" stroke-width="0.01" marker-end="url(#arrow)" />
<line x1="0.06207957122920971" y1="-0.09672489750180116" x2="0.2011228933295427" y2="0.01612021327437576" stroke="black" stroke-width="0.01" marker-end="url(#arrow)" />
<line x1="0.06207957122920971" y1="-0.09672489750180116" x2="0.6179087561369194" y2="-0.10546571762584259" stroke="black" stroke-width="0.01" marker-end="url(#arrow)" />
<line x1="0.06207957122920971" y1="-0.09672489750180116" x2="0.3770016979163784" y2="0.5988641951465622" stroke="black" stroke-width="0.01" marker-end="url(#arrow)" />
<line x1="0.06207957122920971" y1="-0.09672489750180116" x2="0.6366793871093794" y2="-0.49126323388674475" stroke="black" stroke-width="0.01" marker-end="url(#arrow)" />
<line x1="0.06207957122920971" y1="-0.09672489750180116" x2="-0.2386868872652651" y2="0.3313673145642927" stroke="black" stroke-width="0.01" marker-end="url(#arrow)" />
<line x1="0.06207957122920971" y1="-0.09672489750180116" x2="0.801765375816153" y2="0.19355964514615473" stroke="black" stroke-width="0.01" marker-end="url(#arrow)" />
<line x1="0.06207957122920971" y1="-0.09672489750180116" x2="-0.009640531940895977" y2="0.4650852083477225" stroke="black" stroke-width="0.01" marker-end="url(#arrow)" />
<line x1="0.06207957122920971" y1="-0.09672489750180116" x2="-0.5464556928106642" y2="-0.01930069736261158" stroke="black" stroke-width="0.01" marker-end="url(#arrow)" />
<line x1="0.06207957122920971" y1="-0.09672489750180116" x2="-0.5568984858798992" y2="-0.018108397139831863" stroke="black" stroke-width="0.01" marker-end="url(#arrow)" />
<line x1="0.06207957122920971" y1="-0.09672489750180116" x2="-0.546459268232042" y2="-0.019274581881604136" stroke="black" stroke-width="0.01" marker-end="url(#arrow)" />
<line x1="0.06207957122920971" y1="-0.09672489750180116" x2="-0.5661433210650085" y2="-0.050012932970450966" stroke="black" stroke-width="0.01" marker-end="url(#arrow)" />
<line x1="0.06207957122920971" y1="-0.09672489750180116" x2="-0.5464655625666346" y2="-0.019226447120644058" stroke="black" stroke-width="0.01" marker-end="url(#arrow)" />
<line x1="0.06207957122920971" y1="-0.09672489750180116" x2="-0.06311502287886617" y2="-0.44966099281158955" stroke="black" stroke-width="0.01" marker-end="url(#arrow)" />
<line x1="0.06207957122920971" y1="-0.09672489750180116" x2="0.4544923802025779" y2="-0.1062261217709241" stroke="black" stroke-width="0.01" marker-end="url(#arrow)" />
<line x1="0.06207957122920971" y1="-0.09672489750180116" x2="0.5469222989737935" y2="-0.18211356996625147" stroke="black" stroke-width="0.01" marker-end="url(#arrow)" />
<line x1="0.06207957122920971" y1="-0.09672489750180116" x2="0.3704186717921784" y2="-0.6136349565832486" stroke="black" stroke-width="0.01" marker-end="url(#arrow)" />
<line x1="-0.09811334202077851" y1="-0.2753764834729625" x2="0.5465315013793822" y2="-0.19683317641794995" stroke="black" stroke-width="0.01" marker-end="url(#arrow)" />
<line x1="-0.09811334202077851" y1="-0.2753764834729625" x2="0.20379490490706054" y2="0.01308714927749935" stroke="black" stroke-width="0.01" marker-end="url(#arrow)" />
<line x1="-0.09811334202077851" y1="-0.2753764834729625" x2="0.6190784045120442" y2="-0.11703153561341025" stroke="black" stroke-width="0.01" marker-end="url(#arrow)" />
<line x1="-0.09811334202077851" y1="-0.2753764834729625" x2="-0.2547841181213636" y2="0.3239051523564068" stroke="black" stroke-width="0.01" marker-end="url(#arrow)" />
<line x1="-0.09811334202077851" y1="-0.2753764834729625" x2="-0.021142650334655205" y2="0.4649507658470915" stroke="black" stroke-width="0.01" marker-end="url(#arrow)" />
<line x1="-0.09811334202077851" y1="-0.2753764834729625" x2="-0.5518213477145885" y2="-0.0362990315355677" stroke="black" stroke-width="0.01" marker-end="url(#arrow)" />
<line x1="-0.09811334202077851" y1="-0.2753764834729625" x2="-0.5621108601636263" y2="-0.03482161091233445" stroke="black" stroke-width="0.01" marker-end="url(#arrow)" />
<line x1="-0.09811334202077851" y1="-0.2753764834729625" x2="-0.5518256294835205" y2="-0.03627269527929962" stroke="black" stroke-width="0.01" marker-end="url(#arrow)" />
<line x1="-0.09811334202077851" y1="-0.2753764834729625" x2="0.02869971837337501" y2="-0.133951036481325" stroke="black" stroke-width="0.01" marker-end="url(#arrow)" />
<line x1="-0.09811334202077851" y1="-0.2753764834729625" x2="-0.551833231012564" y2="-0.03622416140071361" stroke="black" stroke-width="0.01" marker-end="url(#arrow)" />
<line x1="-0.09811334202077851" y1="-0.2753764834729625" x2="-0.08394540732504178" y2="-0.44695369408807933" stroke="black" stroke-width="0.01" marker-end="url(#arrow)" />
<line x1="-0.09811334202077851" y1="-0.2753764834729625" x2="0.3564439127035751" y2="-0.6260354814315315" stroke="black" stroke-width="0.01" marker-end="url(#arrow)" />
<line x1="-0.09811334202077851" y1="-0.2753764834729625" x2="0.3739014665409504" y2="0.6003991686181969" stroke="black" stroke-width="0.01" marker-end="url(#arrow)" />
<line x1="-0.09811334202077851" y1="-0.2753764834729625" x2="0.6302037713231226" y2="-0.5045572774938796" stroke="black" stroke-width="0.01" marker-end="url(#arrow)" />
<line x1="-0.09811334202077851" y1="-0.2753764834729625" x2="-0.5702790144597909" y2="-0.06653092940871073" stroke="black" stroke-width="0.01" marker-end="url(#arrow)" />
<line x1="-0.09811334202077851" y1="-0.2753764834729625" x2="0.4563132654830328" y2="-0.1208596571292692" stroke="black" stroke-width="0.01" marker-end="url(#arrow)" />
<line x1="-0.5960649756644216" y1="-0.012909943312755722" x2="0.19007660144655017" y2="0.044017171144342365" stroke="black" stroke-width="0.01" marker-end="url(#arrow)" />
<line x1="-0.07983067738100307" y1="-0.496784096429297" x2="0.21462243401414177" y2="0.004515553916888897" stroke="black" stroke-width="0.01" marker-end="url(#arrow)" />
<line x1="0.3960330025549223" y1="-0.6565756838660597" x2="0.8252134213800276" y2="0.16747953030241272" stroke="black" stroke-width="0.01" marker-end="url(#arrow)" />
<line x1="0.3960330025549223" y1="-0.6565756838660597" x2="0.0006194747828873019" y2="0.46751576621077695" stroke="black" stroke-width="0.01" marker-end="url(#arrow)" />
<line x1="0.3960330025549223" y1="-0.6565756838660597" x2="0.09831036764322024" y2="0.1828999463235791" stroke="black" stroke-width="0.01" marker-end="url(#arrow)" />
<line x1="0.3960330025549223" y1="-0.6565756838660597" x2="-0.032431601144242365" y2="-0.512700363953492" stroke="black" stroke-width="0.01" marker-end="url(#arrow)" />
<line x1="0.5044777307330295" y1="-0.10743638304349325" x2="0.016110452290538216" y2="0.4763328637069848" stroke="black" stroke-width="0.01" marker-end="url(#arrow)" />
<line x1="0.5044777307330295" y1="-0.10743638304349325" x2="-0.03822187886052355" y2="-0.4690585146377071" stroke="black" stroke-width="0.01" marker-end="url(#arrow)" />
<line x1="0.5044777307330295" y1="-0.10743638304349325" x2="0.8116692791165732" y2="0.17780360637870835" stroke="black" stroke-width="0.01" marker-end="url(#arrow)" />
<defs><marker id="arrow" viewBox="0 0 10 10" refX="5" refY="5" markerWidth="6" markerHeight="6" orient="auto-start-reverse"><path d="M 0 0 L 10 5 L 0 10 z" fill="black"/></marker></defs>
<circle cx="0.5961644603229846" cy="-0.1907859136898491" r="0.1" fill="#FF6B6B" stroke="black" stroke-width="0.005" />
<text x="0.5961644603229846" y="-0.1907859136898491" dy="0.02" fill="black">0\nO/B\ncPRA: 0.45</text>
<circle cx="0.23994602256887548" cy="0.047628381041893805" r="0.1" fill="#45B7AF" stroke="black" stroke-width="0.005" />
<text x="0.23994602256887548" y="0.047628381041893805" dy="0.02" fill="black">1\nB/A\ncPRA: 0.45</text>
<circle cx="0.6679025748181517" cy="-0.10625190695931408" r="0.1" fill="#FF6B6B" stroke="black" stroke-width="0.005" />
<text x="0.6679025748181517" y="-0.10625190695931408" dy="0.02" fill="black">2\nO/AB\ncPRA: 0.45</text>
<circle cx="0.39762372744218427" cy="0.6444134201480569" r="0.1" fill="#FF6B6B" stroke="black" stroke-width="0.005" />
<text x="0.39762372744218427" y="0.6444134201480569" dy="0.02" fill="black">3\nO/A\ncPRA: 0.05</text>
<circle cx="0.6778981883616564" cy="-0.5195653614273607" r="0.1" fill="#FF6B6B" stroke="black" stroke-width="0.005" />
<text x="0.6778981883616564" y="-0.5195653614273607" dy="0.02" fill="black">4\nO/B\ncPRA: 0.90</text>
<circle cx="-0.26743063811941176" cy="0.37227937619451057" r="0.1" fill="#FF6B6B" stroke="black" stroke-width="0.005" />
<text x="-0.26743063811941176" y="0.37227937619451057" dy="0.02" fill="black">5\nO/O\ncPRA: 0.05</text>
<circle cx="0.8483095071290236" cy="0.2118255653345892" r="0.1" fill="#4ECDC4" stroke="black" stroke-width="0.005" />
<text x="0.8483095071290236" y="0.2118255653345892" dy="0.02" fill="black">6\nA/B\ncPRA: 0.45</text>
<circle cx="-0.015972097102734895" cy="0.5146827010525094" r="0.1" fill="#4ECDC4" stroke="black" stroke-width="0.005" />
<text x="-0.015972097102734895" y="0.5146827010525094" dy="0.02" fill="black">7\nA/B\ncPRA: 0.05</text>
<circle cx="-0.5960558511420677" cy="-0.012990048148806206" r="0.1" fill="#FF6B6B" stroke="black" stroke-width="0.005" />
<text x="-0.5960558511420677" y="-0.012990048148806206" dy="0.02" fill="black">8\nO/B\ncPRA: 0.05</text>
<circle cx="-0.6065000109721039" cy="-0.011808499638492538" r="0.1" fill="#FF6B6B" stroke="black" stroke-width="0.005" />
<text x="-0.6065000109721039" y="-0.011808499638492538" dy="0.02" fill="black">9\nO/A\ncPRA: 0.05</text>
<circle cx="0.08159764415180419" cy="0.23002408953594392" r="0.1" fill="#4ECDC4" stroke="black" stroke-width="0.005" />
<text x="0.08159764415180419" y="0.23002408953594392" dy="0.02" fill="black">10\nA/O\ncPRA: 0.90</text>
<circle cx="-0.5960591646566163" cy="-0.012961874485288521" r="0.1" fill="#FF6B6B" stroke="black" stroke-width="0.005" />
<text x="-0.5960591646566163" y="-0.012961874485288521" dy="0.02" fill="black">11\nO/B\ncPRA: 0.05</text>
<circle cx="-0.6160056722527038" cy="-0.046305382022055225" r="0.1" fill="#FF6B6B" stroke="black" stroke-width="0.005" />
<text x="-0.6160056722527038" y="-0.046305382022055225" dy="0.02" fill="black">12\nO/A\ncPRA: 0.45</text>
<circle cx="0.06207957122920971" cy="-0.09672489750180116" r="0.1" fill="#FF6B6B" stroke="black" stroke-width="0.005" />
<text x="0.06207957122920971" y="-0.09672489750180116" dy="0.02" fill="black">13\nO/O\ncPRA: 0.05</text>
<circle cx="-0.09811334202077851" cy="-0.2753764834729625" r="0.1" fill="#FF6B6B" stroke="black" stroke-width="0.005" />
<text x="-0.09811334202077851" y="-0.2753764834729625" dy="0.02" fill="black">14\nO/O\ncPRA: 0.45</text>
<circle cx="-0.5960649756644216" cy="-0.012909943312755722" r="0.1" fill="#FF6B6B" stroke="black" stroke-width="0.005" />
<text x="-0.5960649756644216" y="-0.012909943312755722" dy="0.02" fill="black">15\nO/B\ncPRA: 0.05</text>
<circle cx="-0.07983067738100307" cy="-0.496784096429297" r="0.1" fill="#4ECDC4" stroke="black" stroke-width="0.005" />
<text x="-0.07983067738100307" y="-0.496784096429297" dy="0.02" fill="black">16\nA/B\ncPRA: 0.05</text>
<circle cx="0.3960330025549223" cy="-0.6565756838660597" r="0.1" fill="#FF6B6B" stroke="black" stroke-width="0.005" />
<text x="0.3960330025549223" y="-0.6565756838660597" dy="0.02" fill="black">17\nO/A\ncPRA: 0.45</text>
<circle cx="-1.0" cy="0.5256229406900319" r="0.1" fill="#FF6B6B" stroke="black" stroke-width="0.005" />
<text x="-1.0" y="0.5256229406900319" dy="0.02" fill="black">18\nO/AB\ncPRA: 0.90</text>
<circle cx="0.5044777307330295" cy="-0.10743638304349325" r="0.1" fill="#FF6B6B" stroke="black" stroke-width="0.005" />
<text x="0.5044777307330295" y="-0.10743638304349325" dy="0.02" fill="black">19\nO/A\ncPRA: 0.05</text>
</svg>